<mxfile host="app.diagrams.net" modified="2022-11-23T05:58:44.166Z" agent="5.0 (Windows NT 10.0; Win64; x64) AppleWebKit/537.36 (KHTML, like Gecko) Chrome/107.0.0.0 Safari/537.36" version="20.6.0" etag="cinxB0XSCpw-8Iw2Ec15" type="github">
  <diagram id="D5eGCirOVV0iaT6eanXh" name="Page-1">
    <mxGraphModel dx="868" dy="460" grid="1" gridSize="10" guides="1" tooltips="1" connect="1" arrows="1" fold="1" page="1" pageScale="1" pageWidth="1654" pageHeight="1169" math="0" shadow="0">
      <root>
        <mxCell id="0" />
        <mxCell id="1" parent="0" />
        <mxCell id="QO7uIBvgcfBt5Puv4jgI-2" value="" style="shape=lineEllipse;line=vertical;perimeter=ellipsePerimeter;whiteSpace=wrap;html=1;backgroundOutline=1;" vertex="1" parent="1">
          <mxGeometry x="130" y="80" width="80" height="80" as="geometry" />
        </mxCell>
        <mxCell id="QO7uIBvgcfBt5Puv4jgI-3" value="" style="endArrow=none;html=1;rounded=0;entryX=1;entryY=0.5;entryDx=0;entryDy=0;" edge="1" parent="1" target="QO7uIBvgcfBt5Puv4jgI-2">
          <mxGeometry width="50" height="50" relative="1" as="geometry">
            <mxPoint x="170" y="120" as="sourcePoint" />
            <mxPoint x="210" y="129.5" as="targetPoint" />
          </mxGeometry>
        </mxCell>
        <mxCell id="QO7uIBvgcfBt5Puv4jgI-14" value="" style="endArrow=classic;html=1;rounded=0;" edge="1" parent="1">
          <mxGeometry width="50" height="50" relative="1" as="geometry">
            <mxPoint x="210" y="120" as="sourcePoint" />
            <mxPoint x="280" y="120" as="targetPoint" />
          </mxGeometry>
        </mxCell>
        <mxCell id="QO7uIBvgcfBt5Puv4jgI-16" value="" style="shape=lineEllipse;line=vertical;perimeter=ellipsePerimeter;whiteSpace=wrap;html=1;backgroundOutline=1;" vertex="1" parent="1">
          <mxGeometry x="280" y="80" width="80" height="80" as="geometry" />
        </mxCell>
        <mxCell id="QO7uIBvgcfBt5Puv4jgI-17" value="" style="endArrow=none;html=1;rounded=0;exitX=0.5;exitY=0.5;exitDx=0;exitDy=0;exitPerimeter=0;entryX=1;entryY=0.5;entryDx=0;entryDy=0;startArrow=none;" edge="1" parent="1" source="QO7uIBvgcfBt5Puv4jgI-16" target="QO7uIBvgcfBt5Puv4jgI-16">
          <mxGeometry width="50" height="50" relative="1" as="geometry">
            <mxPoint x="320.45000000000005" y="250.60000000000002" as="sourcePoint" />
            <mxPoint x="460" y="220" as="targetPoint" />
            <Array as="points" />
          </mxGeometry>
        </mxCell>
        <mxCell id="QO7uIBvgcfBt5Puv4jgI-18" value="&lt;font style=&quot;font-size: 18px;&quot; face=&quot;Times New Roman&quot;&gt;1&lt;/font&gt;" style="text;html=1;resizable=0;autosize=1;align=center;verticalAlign=middle;points=[];fillColor=none;strokeColor=none;rounded=0;" vertex="1" parent="1">
          <mxGeometry x="130" y="100" width="30" height="40" as="geometry" />
        </mxCell>
        <mxCell id="QO7uIBvgcfBt5Puv4jgI-20" value="" style="endArrow=classic;html=1;rounded=0;fontFamily=Times New Roman;fontSize=18;exitX=1;exitY=0.5;exitDx=0;exitDy=0;" edge="1" parent="1" source="QO7uIBvgcfBt5Puv4jgI-16">
          <mxGeometry width="50" height="50" relative="1" as="geometry">
            <mxPoint x="410" y="260" as="sourcePoint" />
            <mxPoint x="440" y="120" as="targetPoint" />
            <Array as="points">
              <mxPoint x="450" y="120" />
            </Array>
          </mxGeometry>
        </mxCell>
        <mxCell id="QO7uIBvgcfBt5Puv4jgI-21" value="" style="shape=lineEllipse;line=vertical;perimeter=ellipsePerimeter;whiteSpace=wrap;html=1;backgroundOutline=1;fontFamily=Times New Roman;fontSize=18;" vertex="1" parent="1">
          <mxGeometry x="450" y="80.00000000000006" width="80" height="80" as="geometry" />
        </mxCell>
        <mxCell id="QO7uIBvgcfBt5Puv4jgI-22" value="" style="endArrow=none;html=1;rounded=0;fontFamily=Times New Roman;fontSize=18;entryX=1;entryY=0.5;entryDx=0;entryDy=0;exitX=0.504;exitY=0.494;exitDx=0;exitDy=0;exitPerimeter=0;" edge="1" parent="1" source="QO7uIBvgcfBt5Puv4jgI-21" target="QO7uIBvgcfBt5Puv4jgI-21">
          <mxGeometry width="50" height="50" relative="1" as="geometry">
            <mxPoint x="410" y="260" as="sourcePoint" />
            <mxPoint x="460" y="210" as="targetPoint" />
          </mxGeometry>
        </mxCell>
        <mxCell id="QO7uIBvgcfBt5Puv4jgI-23" value="" style="endArrow=classic;html=1;rounded=0;fontFamily=Times New Roman;fontSize=18;exitX=0.5;exitY=1;exitDx=0;exitDy=0;" edge="1" parent="1" source="QO7uIBvgcfBt5Puv4jgI-21" target="QO7uIBvgcfBt5Puv4jgI-25">
          <mxGeometry width="50" height="50" relative="1" as="geometry">
            <mxPoint x="410" y="260" as="sourcePoint" />
            <mxPoint x="490" y="240" as="targetPoint" />
          </mxGeometry>
        </mxCell>
        <mxCell id="QO7uIBvgcfBt5Puv4jgI-25" value="" style="shape=lineEllipse;line=vertical;perimeter=ellipsePerimeter;whiteSpace=wrap;html=1;backgroundOutline=1;fontFamily=Times New Roman;fontSize=18;" vertex="1" parent="1">
          <mxGeometry x="450" y="240" width="80" height="80" as="geometry" />
        </mxCell>
        <mxCell id="QO7uIBvgcfBt5Puv4jgI-26" value="" style="endArrow=none;html=1;rounded=0;fontFamily=Times New Roman;fontSize=18;entryX=1;entryY=0.5;entryDx=0;entryDy=0;exitX=0.473;exitY=0.494;exitDx=0;exitDy=0;exitPerimeter=0;" edge="1" parent="1">
          <mxGeometry width="50" height="50" relative="1" as="geometry">
            <mxPoint x="488.8399999999999" y="279.52" as="sourcePoint" />
            <mxPoint x="531" y="280" as="targetPoint" />
          </mxGeometry>
        </mxCell>
        <mxCell id="QO7uIBvgcfBt5Puv4jgI-27" value="" style="endArrow=classic;html=1;rounded=0;fontFamily=Times New Roman;fontSize=18;exitX=1;exitY=0;exitDx=0;exitDy=0;" edge="1" parent="1" source="QO7uIBvgcfBt5Puv4jgI-25" target="QO7uIBvgcfBt5Puv4jgI-28">
          <mxGeometry width="50" height="50" relative="1" as="geometry">
            <mxPoint x="410" y="260" as="sourcePoint" />
            <mxPoint x="600" y="200" as="targetPoint" />
          </mxGeometry>
        </mxCell>
        <mxCell id="QO7uIBvgcfBt5Puv4jgI-28" value="" style="shape=lineEllipse;line=vertical;perimeter=ellipsePerimeter;whiteSpace=wrap;html=1;backgroundOutline=1;fontFamily=Times New Roman;fontSize=18;" vertex="1" parent="1">
          <mxGeometry x="600" y="120" width="80" height="80" as="geometry" />
        </mxCell>
        <mxCell id="QO7uIBvgcfBt5Puv4jgI-30" value="" style="shape=lineEllipse;line=vertical;perimeter=ellipsePerimeter;whiteSpace=wrap;html=1;backgroundOutline=1;fontFamily=Times New Roman;fontSize=18;" vertex="1" parent="1">
          <mxGeometry x="600" y="320" width="80" height="80" as="geometry" />
        </mxCell>
        <mxCell id="QO7uIBvgcfBt5Puv4jgI-31" value="" style="endArrow=classic;html=1;rounded=0;fontFamily=Times New Roman;fontSize=18;exitX=1;exitY=1;exitDx=0;exitDy=0;entryX=0;entryY=0.5;entryDx=0;entryDy=0;" edge="1" parent="1" source="QO7uIBvgcfBt5Puv4jgI-25" target="QO7uIBvgcfBt5Puv4jgI-30">
          <mxGeometry width="50" height="50" relative="1" as="geometry">
            <mxPoint x="410" y="260" as="sourcePoint" />
            <mxPoint x="600" y="370" as="targetPoint" />
          </mxGeometry>
        </mxCell>
        <mxCell id="QO7uIBvgcfBt5Puv4jgI-32" value="" style="endArrow=none;html=1;rounded=0;fontFamily=Times New Roman;fontSize=18;entryX=1;entryY=0.5;entryDx=0;entryDy=0;" edge="1" parent="1" target="QO7uIBvgcfBt5Puv4jgI-28">
          <mxGeometry width="50" height="50" relative="1" as="geometry">
            <mxPoint x="640" y="160" as="sourcePoint" />
            <mxPoint x="460" y="210" as="targetPoint" />
          </mxGeometry>
        </mxCell>
        <mxCell id="QO7uIBvgcfBt5Puv4jgI-33" value="" style="endArrow=none;html=1;rounded=0;fontFamily=Times New Roman;fontSize=18;entryX=1;entryY=0.5;entryDx=0;entryDy=0;exitX=0.483;exitY=0.494;exitDx=0;exitDy=0;exitPerimeter=0;" edge="1" parent="1" source="QO7uIBvgcfBt5Puv4jgI-30" target="QO7uIBvgcfBt5Puv4jgI-30">
          <mxGeometry width="50" height="50" relative="1" as="geometry">
            <mxPoint x="660" y="290" as="sourcePoint" />
            <mxPoint x="690" y="170" as="targetPoint" />
          </mxGeometry>
        </mxCell>
        <mxCell id="QO7uIBvgcfBt5Puv4jgI-34" value="" style="endArrow=classic;html=1;rounded=0;fontFamily=Times New Roman;fontSize=18;" edge="1" parent="1">
          <mxGeometry width="50" height="50" relative="1" as="geometry">
            <mxPoint x="680" y="360" as="sourcePoint" />
            <mxPoint x="770" y="360" as="targetPoint" />
          </mxGeometry>
        </mxCell>
        <mxCell id="QO7uIBvgcfBt5Puv4jgI-121" value="" style="shape=lineEllipse;line=vertical;perimeter=ellipsePerimeter;whiteSpace=wrap;html=1;backgroundOutline=1;fontFamily=Times New Roman;fontSize=18;" vertex="1" parent="1">
          <mxGeometry x="770" y="320" width="80" height="80" as="geometry" />
        </mxCell>
        <mxCell id="QO7uIBvgcfBt5Puv4jgI-122" value="" style="endArrow=none;html=1;rounded=0;fontFamily=Times New Roman;fontSize=18;exitX=0.513;exitY=0.513;exitDx=0;exitDy=0;exitPerimeter=0;entryX=1;entryY=0.5;entryDx=0;entryDy=0;" edge="1" parent="1" source="QO7uIBvgcfBt5Puv4jgI-121" target="QO7uIBvgcfBt5Puv4jgI-121">
          <mxGeometry width="50" height="50" relative="1" as="geometry">
            <mxPoint x="630" y="260" as="sourcePoint" />
            <mxPoint x="680" y="210" as="targetPoint" />
          </mxGeometry>
        </mxCell>
        <mxCell id="QO7uIBvgcfBt5Puv4jgI-123" value="&lt;font style=&quot;font-size: 18px;&quot; face=&quot;Times New Roman&quot;&gt;2&lt;/font&gt;" style="text;html=1;resizable=0;autosize=1;align=center;verticalAlign=middle;points=[];fillColor=none;strokeColor=none;rounded=0;" vertex="1" parent="1">
          <mxGeometry x="280" y="100" width="30" height="40" as="geometry" />
        </mxCell>
        <mxCell id="QO7uIBvgcfBt5Puv4jgI-124" value="&lt;font style=&quot;font-size: 18px;&quot; face=&quot;Times New Roman&quot;&gt;3&lt;/font&gt;" style="text;html=1;resizable=0;autosize=1;align=center;verticalAlign=middle;points=[];fillColor=none;strokeColor=none;rounded=0;" vertex="1" parent="1">
          <mxGeometry x="450" y="100" width="30" height="40" as="geometry" />
        </mxCell>
        <mxCell id="QO7uIBvgcfBt5Puv4jgI-125" value="&lt;font style=&quot;font-size: 18px;&quot; face=&quot;Times New Roman&quot;&gt;4&lt;/font&gt;" style="text;html=1;resizable=0;autosize=1;align=center;verticalAlign=middle;points=[];fillColor=none;strokeColor=none;rounded=0;" vertex="1" parent="1">
          <mxGeometry x="450" y="260" width="30" height="40" as="geometry" />
        </mxCell>
        <mxCell id="QO7uIBvgcfBt5Puv4jgI-126" value="&lt;font style=&quot;font-size: 18px;&quot; face=&quot;Times New Roman&quot;&gt;5&lt;/font&gt;" style="text;html=1;resizable=0;autosize=1;align=center;verticalAlign=middle;points=[];fillColor=none;strokeColor=none;rounded=0;" vertex="1" parent="1">
          <mxGeometry x="600" y="140" width="30" height="40" as="geometry" />
        </mxCell>
        <mxCell id="QO7uIBvgcfBt5Puv4jgI-127" value="&lt;font style=&quot;font-size: 18px;&quot; face=&quot;Times New Roman&quot;&gt;6&lt;/font&gt;" style="text;html=1;resizable=0;autosize=1;align=center;verticalAlign=middle;points=[];fillColor=none;strokeColor=none;rounded=0;" vertex="1" parent="1">
          <mxGeometry x="600" y="340" width="30" height="40" as="geometry" />
        </mxCell>
        <mxCell id="QO7uIBvgcfBt5Puv4jgI-128" value="&lt;font style=&quot;font-size: 18px;&quot; face=&quot;Times New Roman&quot;&gt;7&lt;/font&gt;" style="text;html=1;resizable=0;autosize=1;align=center;verticalAlign=middle;points=[];fillColor=none;strokeColor=none;rounded=0;" vertex="1" parent="1">
          <mxGeometry x="770" y="340" width="30" height="40" as="geometry" />
        </mxCell>
        <mxCell id="QO7uIBvgcfBt5Puv4jgI-129" value="" style="endArrow=classic;html=1;rounded=0;fontFamily=Times New Roman;fontSize=18;exitX=0.5;exitY=1;exitDx=0;exitDy=0;" edge="1" parent="1" source="QO7uIBvgcfBt5Puv4jgI-121">
          <mxGeometry width="50" height="50" relative="1" as="geometry">
            <mxPoint x="760" y="540" as="sourcePoint" />
            <mxPoint x="810" y="480" as="targetPoint" />
          </mxGeometry>
        </mxCell>
        <mxCell id="QO7uIBvgcfBt5Puv4jgI-130" value="" style="shape=lineEllipse;line=vertical;perimeter=ellipsePerimeter;whiteSpace=wrap;html=1;backgroundOutline=1;fontFamily=Times New Roman;fontSize=18;" vertex="1" parent="1">
          <mxGeometry x="770" y="480" width="80" height="80" as="geometry" />
        </mxCell>
        <mxCell id="QO7uIBvgcfBt5Puv4jgI-131" value="" style="endArrow=none;html=1;rounded=0;fontFamily=Times New Roman;fontSize=18;entryX=1;entryY=0.5;entryDx=0;entryDy=0;" edge="1" parent="1" target="QO7uIBvgcfBt5Puv4jgI-130">
          <mxGeometry width="50" height="50" relative="1" as="geometry">
            <mxPoint x="810" y="520" as="sourcePoint" />
            <mxPoint x="810" y="490" as="targetPoint" />
          </mxGeometry>
        </mxCell>
        <mxCell id="QO7uIBvgcfBt5Puv4jgI-132" value="" style="endArrow=classic;html=1;rounded=0;fontFamily=Times New Roman;fontSize=18;exitX=1;exitY=0;exitDx=0;exitDy=0;" edge="1" parent="1" source="QO7uIBvgcfBt5Puv4jgI-130">
          <mxGeometry width="50" height="50" relative="1" as="geometry">
            <mxPoint x="840" y="490" as="sourcePoint" />
            <mxPoint x="920" y="440" as="targetPoint" />
          </mxGeometry>
        </mxCell>
        <mxCell id="QO7uIBvgcfBt5Puv4jgI-134" value="" style="endArrow=classic;html=1;rounded=0;fontFamily=Times New Roman;fontSize=18;exitX=1;exitY=1;exitDx=0;exitDy=0;" edge="1" parent="1" source="QO7uIBvgcfBt5Puv4jgI-130">
          <mxGeometry width="50" height="50" relative="1" as="geometry">
            <mxPoint x="848.2842712474621" y="501.71572875253787" as="sourcePoint" />
            <mxPoint x="920" y="600" as="targetPoint" />
          </mxGeometry>
        </mxCell>
        <mxCell id="QO7uIBvgcfBt5Puv4jgI-135" value="" style="shape=lineEllipse;line=vertical;perimeter=ellipsePerimeter;whiteSpace=wrap;html=1;backgroundOutline=1;fontFamily=Times New Roman;fontSize=18;" vertex="1" parent="1">
          <mxGeometry x="920" y="400" width="80" height="80" as="geometry" />
        </mxCell>
        <mxCell id="QO7uIBvgcfBt5Puv4jgI-136" value="" style="shape=lineEllipse;line=vertical;perimeter=ellipsePerimeter;whiteSpace=wrap;html=1;backgroundOutline=1;fontFamily=Times New Roman;fontSize=18;" vertex="1" parent="1">
          <mxGeometry x="920" y="560" width="80" height="80" as="geometry" />
        </mxCell>
        <mxCell id="QO7uIBvgcfBt5Puv4jgI-137" value="" style="endArrow=classic;html=1;rounded=0;fontFamily=Times New Roman;fontSize=18;" edge="1" parent="1">
          <mxGeometry width="50" height="50" relative="1" as="geometry">
            <mxPoint x="1000" y="600" as="sourcePoint" />
            <mxPoint x="1090" y="600" as="targetPoint" />
          </mxGeometry>
        </mxCell>
        <mxCell id="QO7uIBvgcfBt5Puv4jgI-138" value="" style="shape=lineEllipse;line=vertical;perimeter=ellipsePerimeter;whiteSpace=wrap;html=1;backgroundOutline=1;fontFamily=Times New Roman;fontSize=18;" vertex="1" parent="1">
          <mxGeometry x="1090" y="560" width="80" height="80" as="geometry" />
        </mxCell>
        <mxCell id="QO7uIBvgcfBt5Puv4jgI-139" value="" style="endArrow=none;html=1;rounded=0;fontFamily=Times New Roman;fontSize=18;entryX=1;entryY=0.5;entryDx=0;entryDy=0;exitX=0.5;exitY=0.5;exitDx=0;exitDy=0;exitPerimeter=0;" edge="1" parent="1" source="QO7uIBvgcfBt5Puv4jgI-135" target="QO7uIBvgcfBt5Puv4jgI-135">
          <mxGeometry width="50" height="50" relative="1" as="geometry">
            <mxPoint x="760" y="540" as="sourcePoint" />
            <mxPoint x="810" y="490" as="targetPoint" />
          </mxGeometry>
        </mxCell>
        <mxCell id="QO7uIBvgcfBt5Puv4jgI-140" value="" style="endArrow=none;html=1;rounded=0;fontFamily=Times New Roman;fontSize=18;entryX=1;entryY=0.5;entryDx=0;entryDy=0;exitX=0.5;exitY=0.488;exitDx=0;exitDy=0;exitPerimeter=0;" edge="1" parent="1" source="QO7uIBvgcfBt5Puv4jgI-136" target="QO7uIBvgcfBt5Puv4jgI-136">
          <mxGeometry width="50" height="50" relative="1" as="geometry">
            <mxPoint x="970" y="450" as="sourcePoint" />
            <mxPoint x="1010" y="450" as="targetPoint" />
          </mxGeometry>
        </mxCell>
        <mxCell id="QO7uIBvgcfBt5Puv4jgI-141" value="" style="endArrow=none;html=1;rounded=0;fontFamily=Times New Roman;fontSize=18;entryX=1;entryY=0.5;entryDx=0;entryDy=0;" edge="1" parent="1" target="QO7uIBvgcfBt5Puv4jgI-138">
          <mxGeometry width="50" height="50" relative="1" as="geometry">
            <mxPoint x="1130" y="600" as="sourcePoint" />
            <mxPoint x="810" y="490" as="targetPoint" />
          </mxGeometry>
        </mxCell>
      </root>
    </mxGraphModel>
  </diagram>
</mxfile>
